<svg width="350" height="55" viewBox="0 0 350 55" fill="none" xmlns="http://www.w3.org/2000/svg">
<path d="M98.57 24.6927C98.7041 25.095 98.7041 25.4972 98.8382 25.8994L76.8494 31.7989C78.8605 37.162 84.0896 39.5754 89.5868 38.1005C93.6091 37.0279 96.0225 34.3464 96.827 31.3966L99.2404 32.067C98.1678 35.9553 94.9499 39.0391 90.1231 40.3799C82.6147 42.391 75.9108 38.5028 74.0337 31.1285C72.1566 24.0223 75.7767 17.0503 83.151 15.1732C90.6594 13.162 96.827 18.1229 98.57 24.6927ZM76.313 29.3855L95.7544 24.1564C93.6091 18.391 88.6482 16.2458 83.8214 17.4525C78.3242 18.9274 75.3745 23.8883 76.313 29.3855Z" fill="black" stroke="black" stroke-miterlimit="10"/>
<path d="M128.201 24.6927C128.335 25.095 128.335 25.4972 128.469 25.8994L106.48 31.7989C108.491 37.162 113.72 39.5754 119.218 38.1005C123.24 37.0279 125.653 34.3464 126.458 31.3966L128.871 32.067C127.799 35.9553 124.581 39.0391 119.754 40.3799C112.246 42.3911 105.542 38.5028 103.665 31.1285C101.787 24.0223 105.408 17.0503 112.782 15.1732C120.156 13.162 126.324 17.9888 128.201 24.6927ZM105.81 29.3855L125.251 24.1564C123.106 18.3911 118.145 16.2458 113.318 17.4525C107.821 18.9274 104.871 23.8883 105.81 29.3855Z" fill="black" stroke="black" stroke-miterlimit="10"/>
<path d="M178.614 24.6927C178.749 25.0949 178.749 25.4972 178.883 25.8994L156.894 31.7988C158.905 37.162 164.134 39.5754 169.631 38.1005C173.654 37.0279 176.067 34.3463 176.871 31.3966L179.285 32.067C178.212 35.9553 174.994 39.0391 170.168 40.3798C162.659 42.391 155.955 38.5028 154.078 31.1285C152.201 24.0223 155.821 17.0502 163.195 15.1731C170.57 13.2961 176.871 18.1229 178.614 24.6927ZM156.357 29.3854L175.799 24.1564C173.654 18.391 168.693 16.2458 163.866 17.4525C158.369 19.0614 155.285 23.8882 156.357 29.3854Z" fill="black" stroke="black" stroke-miterlimit="10"/>
<path d="M208.246 24.6927C208.38 25.0949 208.38 25.4972 208.514 25.8994L186.525 31.7988C188.536 37.162 193.765 39.5754 199.263 38.1005C203.285 37.0279 205.698 34.3463 206.503 31.3966L208.916 32.067C207.844 35.9553 204.626 39.0391 199.799 40.3798C192.29 42.391 185.587 38.5028 183.709 31.1285C181.832 24.0223 185.453 17.0502 192.827 15.1731C200.201 13.2961 206.369 18.1229 208.246 24.6927ZM185.855 29.3854L205.296 24.1564C203.151 18.391 198.19 16.2458 193.363 17.4525C187.866 19.0614 184.916 23.8882 185.855 29.3854Z" fill="black" stroke="black" stroke-miterlimit="10"/>
<path d="M149.922 40.648L136.246 28.0447V40.648H133.698V4.71509H136.246V26.7039L149.251 15.0391H152.871L139.061 27.3743L153.408 40.7821H149.922V40.648Z" fill="black" stroke="black" stroke-miterlimit="10"/>
<path d="M71.7541 38.1006V40.648H52.1787V38.905L67.5977 17.4525H52.715V14.905H71.2178V16.648L55.7988 38.1006H71.7541Z" fill="black" stroke="black" stroke-miterlimit="10"/>
<path d="M230.503 38.1006V40.648H210.927V38.905L226.346 17.4525H211.464V14.905H229.966V16.648L214.547 38.1006H230.503Z" fill="black" stroke="black" stroke-miterlimit="10"/>
<path d="M29.3855 20.2682L20.1341 16.9162L11.0168 20.2682C10.7486 20.4022 10.4805 20.6704 10.4805 20.9385C10.4805 21.3408 10.7486 21.6089 11.1509 21.6089H12.2235V24.8268C12.2235 26.9721 12.8939 29.1173 14.5028 30.7263C17.5866 33.8101 22.6816 33.8101 25.7654 30.7263C27.3743 29.1173 28.1788 26.838 28.0447 24.6927V21.6089H28.9833C29.3855 21.6089 29.6537 21.3408 29.6537 20.9385C29.9218 20.6704 29.6537 20.4022 29.3855 20.2682ZM20 28.0447H17.4525V25.4972H20V28.0447ZM20 24.6927H17.4525V22.1452H20V24.6927ZM23.2179 28.0447H20.6704V25.4972H23.2179V28.0447ZM23.2179 24.6927H20.6704V22.1452H23.2179V24.6927Z" fill="#FF0000"/>
<path fill-rule="evenodd" clip-rule="evenodd" d="M23.8881 25.6312V28.715H20.8043V25.6312H23.8881ZM20.8043 21.743H23.8881V24.8268H20.8043V21.743ZM19.9998 25.6312V28.715H16.916V25.6312H19.9998ZM16.916 21.743H19.9998V24.8268H16.916V21.743V21.743Z" fill="white"/>
<path d="M34.6145 10.2123C26.5698 2.30165 13.8324 2.30165 5.92176 10.3463C-1.85478 18.257 -1.85478 30.8603 5.92176 38.7709C7.39662 40.2458 20.2681 50.7039 20.2681 50.7039C32.4692 40.9162 32.2011 41.3184 34.6145 38.905C42.6592 30.9944 42.6592 18.1229 34.6145 10.2123ZM32.2011 36.6257C30.9944 37.8324 20.2681 46.4134 20.2681 46.4134C20.2681 46.4134 9.54187 37.6983 8.33516 36.4916C1.89941 29.9218 1.89941 19.4637 8.33516 12.8938C14.905 6.324 25.4972 6.18992 32.2011 12.7598C38.7709 19.3296 38.7709 30.0558 32.2011 36.6257Z" fill="black"/>
<path d="M270.73 43.63C276.49 43.63 281.53 40.795 284.23 36.34L278.02 32.74C276.67 35.17 273.925 36.61 270.73 36.61C265.15 36.61 261.55 32.875 261.55 27.25C261.55 21.625 265.15 17.89 270.73 17.89C273.925 17.89 276.625 19.33 278.02 21.76L284.23 18.16C281.485 13.705 276.445 10.87 270.73 10.87C261.235 10.87 254.35 17.98 254.35 27.25C254.35 36.52 261.235 43.63 270.73 43.63ZM304.164 43H311.904L305.199 31.435C308.664 29.68 311.004 26.17 311.004 22.3C311.004 16.315 306.189 11.5 300.204 11.5H287.604V43H294.804V32.65H298.224L304.164 43ZM294.804 18.25H300.204C302.184 18.25 303.804 20.005 303.804 22.3C303.804 24.595 302.184 26.35 300.204 26.35H294.804V18.25ZM346.79 11.5H339.59L331.04 25.495L322.49 11.5H315.29V43H322.49V24.685L330.635 38.05H331.445L339.59 24.685V43H346.79V11.5Z" fill="#464646"/>
</svg>
