<svg width="339" height="49" viewBox="0 0 339 49" fill="none" xmlns="http://www.w3.org/2000/svg">
<path d="M98.57 21.6927C98.7041 22.095 98.7041 22.4972 98.8382 22.8994L76.8494 28.7989C78.8605 34.162 84.0896 36.5754 89.5868 35.1005C93.6091 34.0279 96.0225 31.3464 96.827 28.3966L99.2404 29.067C98.1678 32.9553 94.9499 36.0391 90.1231 37.3799C82.6147 39.391 75.9108 35.5028 74.0337 28.1285C72.1566 21.0223 75.7767 14.0503 83.151 12.1732C90.6594 10.162 96.827 15.1229 98.57 21.6927ZM76.313 26.3855L95.7544 21.1564C93.6091 15.391 88.6482 13.2458 83.8214 14.4525C78.3242 15.9274 75.3745 20.8883 76.313 26.3855Z" fill="black" stroke="black" stroke-miterlimit="10"/>
<path d="M128.201 21.6927C128.335 22.095 128.335 22.4972 128.469 22.8994L106.48 28.7989C108.491 34.162 113.72 36.5754 119.218 35.1005C123.24 34.0279 125.653 31.3464 126.458 28.3966L128.871 29.067C127.799 32.9553 124.581 36.0391 119.754 37.3799C112.246 39.3911 105.542 35.5028 103.665 28.1285C101.787 21.0223 105.408 14.0503 112.782 12.1732C120.156 10.162 126.324 14.9888 128.201 21.6927ZM105.81 26.3855L125.251 21.1564C123.106 15.3911 118.145 13.2458 113.318 14.4525C107.821 15.9274 104.871 20.8883 105.81 26.3855Z" fill="black" stroke="black" stroke-miterlimit="10"/>
<path d="M178.614 21.6927C178.749 22.0949 178.749 22.4972 178.883 22.8994L156.894 28.7988C158.905 34.162 164.134 36.5754 169.631 35.1005C173.654 34.0279 176.067 31.3463 176.871 28.3966L179.285 29.067C178.212 32.9553 174.994 36.0391 170.168 37.3798C162.659 39.391 155.955 35.5028 154.078 28.1285C152.201 21.0223 155.821 14.0502 163.195 12.1731C170.57 10.2961 176.871 15.1229 178.614 21.6927ZM156.357 26.3854L175.799 21.1564C173.654 15.391 168.693 13.2458 163.866 14.4525C158.369 16.0614 155.285 20.8882 156.357 26.3854Z" fill="black" stroke="black" stroke-miterlimit="10"/>
<path d="M208.246 21.6927C208.38 22.0949 208.38 22.4972 208.514 22.8994L186.525 28.7988C188.536 34.162 193.765 36.5754 199.263 35.1005C203.285 34.0279 205.698 31.3463 206.503 28.3966L208.916 29.067C207.844 32.9553 204.626 36.0391 199.799 37.3798C192.29 39.391 185.587 35.5028 183.709 28.1285C181.832 21.0223 185.453 14.0502 192.827 12.1731C200.201 10.2961 206.369 15.1229 208.246 21.6927ZM185.855 26.3854L205.296 21.1564C203.151 15.391 198.19 13.2458 193.363 14.4525C187.866 16.0614 184.916 20.8882 185.855 26.3854Z" fill="black" stroke="black" stroke-miterlimit="10"/>
<path d="M149.922 37.648L136.246 25.0447V37.648H133.698V1.71509H136.246V23.7039L149.251 12.0391H152.871L139.061 24.3743L153.408 37.7821H149.922V37.648Z" fill="black" stroke="black" stroke-miterlimit="10"/>
<path d="M71.7541 35.1006V37.648H52.1787V35.905L67.5977 14.4525H52.715V11.905H71.2178V13.648L55.7988 35.1006H71.7541Z" fill="black" stroke="black" stroke-miterlimit="10"/>
<path d="M230.503 35.1006V37.648H210.927V35.905L226.346 14.4525H211.464V11.905H229.966V13.648L214.547 35.1006H230.503Z" fill="black" stroke="black" stroke-miterlimit="10"/>
<path d="M29.3855 17.2682L20.1341 13.9162L11.0168 17.2682C10.7486 17.4022 10.4805 17.6704 10.4805 17.9385C10.4805 18.3408 10.7486 18.6089 11.1509 18.6089H12.2235V21.8268C12.2235 23.9721 12.8939 26.1173 14.5028 27.7263C17.5866 30.8101 22.6816 30.8101 25.7654 27.7263C27.3743 26.1173 28.1788 23.838 28.0447 21.6927V18.6089H28.9833C29.3855 18.6089 29.6537 18.3408 29.6537 17.9385C29.9218 17.6704 29.6537 17.4022 29.3855 17.2682ZM20 25.0447H17.4525V22.4972H20V25.0447ZM20 21.6927H17.4525V19.1452H20V21.6927ZM23.2179 25.0447H20.6704V22.4972H23.2179V25.0447ZM23.2179 21.6927H20.6704V19.1452H23.2179V21.6927Z" fill="#FF0000"/>
<path fill-rule="evenodd" clip-rule="evenodd" d="M23.8881 22.6312V25.715H20.8043V22.6312H23.8881ZM20.8043 18.743H23.8881V21.8268H20.8043V18.743ZM19.9998 22.6312V25.715H16.916V22.6312H19.9998ZM16.916 18.743H19.9998V21.8268H16.916V18.743V18.743Z" fill="white"/>
<path d="M34.6145 7.21227C26.5698 -0.698348 13.8324 -0.698349 5.92176 7.34634C-1.85478 15.257 -1.85478 27.8603 5.92176 35.7709C7.39662 37.2458 20.2681 47.7039 20.2681 47.7039C32.4692 37.9162 32.2011 38.3184 34.6145 35.905C42.6592 27.9944 42.6592 15.1229 34.6145 7.21227ZM32.2011 33.6257C30.9944 34.8324 20.2681 43.4134 20.2681 43.4134C20.2681 43.4134 9.54187 34.6983 8.33516 33.4916C1.89941 26.9218 1.89941 16.4637 8.33516 9.89383C14.905 3.324 25.4972 3.18992 32.2011 9.75975C38.7709 16.3296 38.7709 27.0558 32.2011 33.6257Z" fill="black"/>
<path d="M268.76 38.56C273.88 38.56 278.36 36.04 280.76 32.08L275.24 28.88C274.04 31.04 271.6 32.32 268.76 32.32C263.8 32.32 260.6 29 260.6 24C260.6 19 263.8 15.68 268.76 15.68C271.6 15.68 274 16.96 275.24 19.12L280.76 15.92C278.32 11.96 273.84 9.44 268.76 9.44C260.32 9.44 254.2 15.76 254.2 24C254.2 32.24 260.32 38.56 268.76 38.56ZM298.479 38H305.359L299.399 27.72C302.479 26.16 304.559 23.04 304.559 19.6C304.559 14.28 300.279 10 294.959 10H283.759V38H290.159V28.8H293.199L298.479 38ZM290.159 16H294.959C296.719 16 298.159 17.56 298.159 19.6C298.159 21.64 296.719 23.2 294.959 23.2H290.159V16ZM336.369 10H329.969L322.369 22.44L314.769 10H308.369V38H314.769V21.72L322.009 33.6H322.729L329.969 21.72V38H336.369V10Z" fill="black"/>
</svg>
