<svg width="240" height="59" viewBox="0 0 240 59" fill="none" xmlns="http://www.w3.org/2000/svg">
<path d="M102.57 28.6927C102.704 29.095 102.704 29.4972 102.838 29.8994L80.8491 35.7989C82.8603 41.162 88.0893 43.5754 93.5865 42.1006C97.6089 41.0279 100.022 38.3464 100.827 35.3966L103.24 36.067C102.168 39.9553 98.9497 43.0391 94.1228 44.3799C86.6145 46.3911 79.9106 42.5028 78.0335 35.1285C76.1564 28.0223 79.7765 21.0503 87.1508 19.1732C94.6592 17.162 100.827 22.1229 102.57 28.6927ZM80.3128 33.3855L99.7541 28.1564C97.6089 22.3911 92.648 20.2458 87.8212 21.4525C82.324 22.9274 79.3743 27.8883 80.3128 33.3855Z" fill="black" stroke="black" stroke-miterlimit="10"/>
<path d="M132.201 28.6927C132.335 29.095 132.335 29.4972 132.469 29.8994L110.48 35.7989C112.492 41.162 117.721 43.5754 123.218 42.1006C127.24 41.0279 129.654 38.3464 130.458 35.3967L132.872 36.067C131.799 39.9553 128.581 43.0391 123.754 44.3799C116.246 46.3911 109.542 42.5028 107.665 35.1285C105.788 28.0224 109.408 21.0503 116.782 19.1732C124.156 17.162 130.324 21.9888 132.201 28.6927ZM109.81 33.3855L129.251 28.1564C127.106 22.3911 122.145 20.2458 117.318 21.4525C111.821 22.9274 108.872 27.8883 109.81 33.3855Z" fill="black" stroke="black" stroke-miterlimit="10"/>
<path d="M51.7541 28.0224C52.4946 28.0224 53.0949 27.4221 53.0949 26.6816C53.0949 25.9411 52.4946 25.3408 51.7541 25.3408C51.0136 25.3408 50.4133 25.9411 50.4133 26.6816C50.4133 27.4221 51.0136 28.0224 51.7541 28.0224Z" fill="white"/>
<path d="M182.614 28.6927C182.749 29.095 182.749 29.4972 182.883 29.8994L160.894 35.7989C162.905 41.162 168.134 43.5754 173.631 42.1006C177.654 41.0279 180.067 38.3464 180.871 35.3967L183.285 36.067C182.212 39.9553 178.994 43.0391 174.168 44.3799C166.659 46.3911 159.955 42.5028 158.078 35.1285C156.201 28.0224 159.821 21.0503 167.195 19.1732C174.57 17.2961 180.871 22.1229 182.614 28.6927ZM160.357 33.3855L179.799 28.1564C177.654 22.3911 172.693 20.2458 167.866 21.4525C162.369 23.0615 159.285 27.8883 160.357 33.3855Z" fill="black" stroke="black" stroke-miterlimit="10"/>
<path d="M212.246 28.6927C212.38 29.095 212.38 29.4972 212.514 29.8994L190.525 35.7989C192.536 41.162 197.765 43.5754 203.263 42.1006C207.285 41.0279 209.698 38.3464 210.503 35.3967L212.916 36.067C211.844 39.9553 208.626 43.0391 203.799 44.3799C196.29 46.3911 189.587 42.5028 187.709 35.1285C185.832 28.0224 189.453 21.0503 196.827 19.1732C204.201 17.2961 210.369 22.1229 212.246 28.6927ZM189.855 33.3855L209.296 28.1564C207.151 22.3911 202.19 20.2458 197.363 21.4525C191.866 23.0615 188.916 27.8883 189.855 33.3855Z" fill="black" stroke="black" stroke-miterlimit="10"/>
<path d="M153.922 44.648L140.246 32.0447V44.648H137.698V8.71509H140.246V30.7039L153.251 19.0391H156.871L143.061 31.3743L157.408 44.7821H153.922V44.648Z" fill="black" stroke="black" stroke-miterlimit="10"/>
<path d="M75.7541 42.1006V44.648H56.1787V42.905L71.5977 21.4525H56.715V18.905H75.2178V20.648L59.7988 42.1006H75.7541Z" fill="black" stroke="black" stroke-miterlimit="10"/>
<path d="M234.503 42.1006V44.648H214.927V42.905L230.346 21.4525H215.464V18.905H233.966V20.648L218.547 42.1006H234.503Z" fill="black" stroke="black" stroke-miterlimit="10"/>
<path d="M33.3855 24.2682L24.1341 20.9162L15.0168 24.2682C14.7486 24.4022 14.4805 24.6704 14.4805 24.9385C14.4805 25.3408 14.7486 25.6089 15.1509 25.6089H16.2235V28.8268C16.2235 30.9721 16.8939 33.1173 18.5028 34.7263C21.5866 37.8101 26.6816 37.8101 29.7654 34.7263C31.3743 33.1173 32.1788 30.838 32.0447 28.6927V25.6089H32.9833C33.3855 25.6089 33.6537 25.3408 33.6537 24.9385C33.9218 24.6704 33.6537 24.4022 33.3855 24.2682ZM24 32.0447H21.4525V29.4972H24V32.0447ZM24 28.6927H21.4525V26.1452H24V28.6927ZM27.2179 32.0447H24.6704V29.4972H27.2179V32.0447ZM27.2179 28.6927H24.6704V26.1452H27.2179V28.6927Z" fill="#FF0000"/>
<path fill-rule="evenodd" clip-rule="evenodd" d="M27.8883 29.6313V32.7151H24.8045V29.6313H27.8883ZM24.8045 25.743H27.8883V28.8268H24.8045V25.743ZM24.0001 29.6313V32.7151H20.9163V29.6313H24.0001ZM20.9163 25.743H24.0001V28.8268H20.9163V25.743Z" fill="white"/>
<path d="M38.6145 14.2123C30.5698 6.30168 17.8324 6.30168 9.92176 14.3464C2.14522 22.257 2.14522 34.8603 9.92176 42.771C11.3966 44.2458 24.2681 54.7039 24.2681 54.7039C36.4692 44.9162 36.2011 45.3184 38.6145 42.905C46.6592 34.9944 46.6592 22.1229 38.6145 14.2123ZM36.2011 40.6257C34.9944 41.8324 24.2681 50.4134 24.2681 50.4134C24.2681 50.4134 13.5419 41.6983 12.3352 40.4916C5.89941 33.9218 5.89941 23.4637 12.3352 16.8939C18.905 10.324 29.4972 10.1899 36.2011 16.7598C42.7709 23.3296 42.7709 34.0559 36.2011 40.6257Z" fill="black"/>
</svg>
